<svg width="24" height="24" viewBox="0 0 24 24" fill="none" xmlns="http://www.w3.org/2000/svg">
  <!-- Question mark icon for unknown providers -->
  <circle cx="12" cy="12" r="10" fill="#64748b" stroke="#475569" stroke-width="1"/>
  
  <!-- Question mark shape -->
  <path d="M12 18.5C11.17 18.5 10.5 17.83 10.5 17C10.5 16.17 11.17 15.5 12 15.5C12.83 15.5 13.5 16.17 13.5 17C13.5 17.83 12.83 18.5 12 18.5Z" fill="white"/>
  
  <!-- Question mark curve -->
  <path d="M12 14V13.5C12 12.1 12.9 11.5 13.8 10.8C14.7 10.1 15.5 9.4 15.5 8.5C15.5 6.6 14.4 5.5 12 5.5C9.6 5.5 8.5 6.6 8.5 8.5H10.5C10.5 7.7 10.9 7.5 12 7.5C13.1 7.5 13.5 7.7 13.5 8.5C13.5 9.2 13.1 9.7 12.2 10.4C11.3 11.1 10.5 11.8 10.5 13.5V14H12Z" fill="white"/>
</svg> 